<svg width="60" height="51" viewBox="0 0 60 51" fill="none" xmlns="http://www.w3.org/2000/svg">
<path d="M32.8122 25.7001H59.8002" stroke="#1749FF" stroke-width="2.49573" stroke-miterlimit="10" stroke-linejoin="round"/>
<path d="M27.2722 31.24H16.8321C13.7782 31.24 11.2924 28.7543 11.2924 25.7003C11.2924 22.6464 13.7782 20.1607 16.8321 20.1607H27.2722C30.3261 20.1607 32.8118 22.6464 32.8118 25.7003C32.8118 28.7543 30.3261 31.24 27.2722 31.24Z" stroke="#1749FF" stroke-width="2.49573" stroke-miterlimit="10" stroke-linejoin="round"/>
<path d="M0 25.7001H11.2213" stroke="#1749FF" stroke-width="2.49573" stroke-miterlimit="10" stroke-linejoin="round"/>
<path d="M49.7155 7.37689H59.8005" stroke="#1749FF" stroke-width="2.49573" stroke-miterlimit="10" stroke-linejoin="round"/>
<path d="M44.1755 12.9875H33.7354C30.6815 12.9875 28.1958 10.5018 28.1958 7.44785C28.1958 4.39394 30.6815 1.9082 33.7354 1.9082H44.1755C47.2294 1.9082 49.7152 4.39394 49.7152 7.44785C49.7152 10.5018 47.2294 12.9875 44.1755 12.9875Z" stroke="#1749FF" stroke-width="2.49573" stroke-miterlimit="10" stroke-linejoin="round"/>
<path d="M0.000488281 7.37689H28.1959" stroke="#1749FF" stroke-width="2.49573" stroke-miterlimit="10" stroke-linejoin="round"/>
<path d="M49.7151 43.9522H59.8" stroke="#1749FF" stroke-width="2.49573" stroke-miterlimit="10" stroke-linejoin="round"/>
<path d="M44.175 49.4921H33.7349C30.681 49.4921 28.1953 47.0064 28.1953 43.9525C28.1953 40.8985 30.681 38.4128 33.7349 38.4128H44.175C47.2289 38.4128 49.7147 40.8985 49.7147 43.9525C49.7147 47.0064 47.2289 49.4921 44.175 49.4921Z" stroke="#1749FF" stroke-width="2.49573" stroke-miterlimit="10" stroke-linejoin="round"/>
<path d="M0 43.9522H28.1954" stroke="#1749FF" stroke-width="2.49573" stroke-miterlimit="10" stroke-linejoin="round"/>
</svg>