<svg width="159" height="46" viewBox="0 0 159 46" fill="none" xmlns="http://www.w3.org/2000/svg">
<path d="M20.3667 42.5975C31.6149 42.5975 40.7334 33.184 40.7334 21.5719C40.7334 9.95985 31.6149 0.546387 20.3667 0.546387C9.11849 0.546387 0 9.95985 0 21.5719C0 33.184 9.11849 42.5975 20.3667 42.5975Z" fill="#1749FF"/>
<path d="M28.0127 17.2649C28.0127 13.7489 25.254 10.901 21.8481 10.901H17.8293L12.7036 15.0499H21.8311C22.7337 15.0499 23.5681 15.6827 23.8405 16.5793C24.2663 17.9681 23.2275 19.5151 21.8992 19.5151H17.8293L12.7036 15.0499V23.6288H21.8311C22.7337 23.6288 23.5681 24.2617 23.8405 25.1583C24.2663 26.5471 23.2275 28.0941 21.8992 28.0941H17.8293L12.7036 23.6464V32.2254H21.8481C25.254 32.2254 28.0127 29.3775 28.0127 25.8615C28.0127 24.209 27.3996 22.6971 26.3949 21.572C27.3996 20.4293 28.0127 18.935 28.0127 17.2649Z" fill="white"/>
<path d="M62.9392 15.3486C63.5182 16.1046 63.8077 16.9836 63.8077 17.968C63.8077 19.4272 63.3309 20.5699 62.3943 21.3785C61.4577 22.2048 60.1124 22.6091 58.3413 22.6091H50.6783V5.60938H58.1711C59.8569 5.60938 61.1511 5.97855 62.0707 6.73449C62.9903 7.49042 63.4501 8.5628 63.4501 9.95161C63.4501 10.9712 63.1776 11.8327 62.6497 12.5183C62.1218 13.2039 61.4236 13.6434 60.5722 13.8543C61.5598 14.1005 62.3602 14.5927 62.9392 15.3486ZM54.6631 12.5534H57.2685C58.6479 12.5534 59.3461 11.9381 59.3461 10.7251C59.3461 9.51211 58.6308 8.89682 57.2174 8.89682H54.6631V12.5534ZM59.7207 17.3879C59.7207 16.7726 59.5334 16.2979 59.1417 15.9639C58.75 15.6123 58.2051 15.4541 57.4899 15.4541H54.6631V19.2865H57.5069C58.9885 19.269 59.7207 18.6537 59.7207 17.3879Z" fill="#010D1B"/>
<path d="M71.8115 9.75825C72.5948 9.28359 73.4463 9.03748 74.3658 9.03748V13.45H73.2249C72.1691 13.45 71.3517 13.6786 70.7727 14.1532C70.1937 14.6103 69.9042 15.4014 69.9042 16.5089V22.6267H65.9024V9.19569H69.8872V11.7272C70.3981 10.9009 71.0281 10.2505 71.8115 9.75825Z" fill="#010D1B"/>
<path d="M83.5618 9.72318C84.277 10.1803 84.8049 10.8307 85.1455 11.6218V9.19578H89.1132V22.6268H85.1455V20.2008C84.8049 21.0095 84.277 21.6423 83.5618 22.0994C82.8466 22.5565 81.9951 22.8026 80.9904 22.8026C79.9176 22.8026 78.964 22.5213 78.1125 21.9764C77.2611 21.4314 76.5969 20.6227 76.1031 19.5855C75.6093 18.5483 75.3708 17.3177 75.3708 15.9289C75.3708 14.5225 75.6093 13.2919 76.1031 12.2547C76.5969 11.2175 77.2611 10.4264 78.1125 9.86382C78.964 9.31884 79.9176 9.03756 80.9904 9.03756C81.9951 9.01998 82.8466 9.24852 83.5618 9.72318ZM80.2071 13.5029C79.6792 14.083 79.4237 14.8917 79.4237 15.9113C79.4237 16.9309 79.6792 17.7396 80.2071 18.3197C80.735 18.8999 81.4161 19.1812 82.2676 19.1812C83.102 19.1812 83.8002 18.8823 84.3281 18.2846C84.856 17.6869 85.1285 16.8958 85.1285 15.8937C85.1285 14.8741 84.856 14.083 84.3281 13.5029C83.8002 12.9227 83.102 12.6239 82.2676 12.6239C81.4161 12.6239 80.735 12.9227 80.2071 13.5029Z" fill="#010D1B"/>
<path d="M103.673 10.5846C104.558 11.6042 104.984 13.0282 104.984 14.8213V22.6268H100.999V15.296C100.999 14.3994 100.778 13.6962 100.318 13.1864C99.8583 12.6766 99.2453 12.4305 98.496 12.4305C97.6956 12.4305 97.0485 12.6942 96.5717 13.2215C96.0949 13.7489 95.8565 14.5049 95.8565 15.4894V22.6092H91.8717V9.19575H95.8565V11.6569C96.2311 10.8483 96.7931 10.2154 97.5253 9.75831C98.2576 9.30123 99.1261 9.05511 100.131 9.05511C101.612 9.03753 102.787 9.56493 103.673 10.5846Z" fill="#010D1B"/>
<path d="M115.134 9.72315C115.849 10.1802 116.377 10.8307 116.7 11.6218V4.80078H120.685V22.6092H116.7V20.1832C116.377 20.9919 115.849 21.6247 115.134 22.0818C114.418 22.5389 113.567 22.785 112.562 22.785C111.489 22.785 110.536 22.5037 109.684 21.9588C108.833 21.4138 108.169 20.6051 107.675 19.5679C107.181 18.5307 106.943 17.3001 106.943 15.9113C106.943 14.5049 107.181 13.2743 107.675 12.2371C108.169 11.1999 108.833 10.4088 109.684 9.84621C110.536 9.30123 111.489 9.01996 112.562 9.01996C113.567 9.01996 114.418 9.24849 115.134 9.72315ZM111.779 13.5028C111.251 14.083 110.995 14.8916 110.995 15.9113C110.995 16.9309 111.251 17.7396 111.779 18.3197C112.307 18.8999 112.988 19.1811 113.839 19.1811C114.674 19.1811 115.372 18.8823 115.9 18.2846C116.428 17.6868 116.7 16.8957 116.7 15.8937C116.7 14.8741 116.428 14.083 115.9 13.5028C115.372 12.9227 114.674 12.6238 113.839 12.6238C112.988 12.6238 112.307 12.9227 111.779 13.5028Z" fill="#010D1B"/>
<path d="M123.715 3.8515C124.158 3.44716 124.72 3.23621 125.435 3.23621C126.151 3.23621 126.73 3.44716 127.155 3.8515C127.598 4.25584 127.802 4.78324 127.802 5.39853C127.802 6.01383 127.581 6.52365 127.155 6.92798C126.712 7.33232 126.151 7.54328 125.435 7.54328C124.72 7.54328 124.141 7.33232 123.715 6.92798C123.273 6.52365 123.068 6.01383 123.068 5.39853C123.051 4.78324 123.273 4.27342 123.715 3.8515ZM127.428 9.19579V22.6268H123.443V9.19579H127.428Z" fill="#010D1B"/>
<path d="M141.988 10.5846C142.873 11.6042 143.299 13.0282 143.299 14.8213V22.6268H139.314V15.296C139.314 14.3994 139.093 13.6962 138.633 13.1864C138.173 12.6766 137.56 12.4305 136.811 12.4305C136.011 12.4305 135.364 12.6942 134.887 13.2215C134.41 13.7489 134.172 14.5049 134.172 15.4894V22.6092H130.187V9.19575H134.172V11.6569C134.546 10.8483 135.108 10.2154 135.84 9.75831C136.573 9.30123 137.441 9.05511 138.446 9.05511C139.91 9.03753 141.102 9.56493 141.988 10.5846Z" fill="#010D1B"/>
<path d="M153.449 9.72318C154.164 10.1803 154.692 10.8307 155.032 11.6218V9.19578H159V22.5565C159 23.8047 158.762 24.9298 158.302 25.9318C157.842 26.9339 157.127 27.725 156.156 28.3227C155.186 28.9204 153.994 29.2193 152.563 29.2193C150.605 29.2193 149.038 28.7446 147.863 27.7953C146.688 26.846 145.99 25.5451 145.752 23.9102H149.685C149.804 24.4551 150.094 24.8771 150.537 25.1935C150.979 25.4923 151.558 25.6506 152.274 25.6506C153.091 25.6506 153.755 25.4044 154.266 24.9122C154.777 24.42 155.032 23.6465 155.032 22.5565V20.2008C154.692 21.0095 154.164 21.6424 153.449 22.0994C152.733 22.5565 151.882 22.8026 150.877 22.8026C149.804 22.8026 148.851 22.5213 147.999 21.9764C147.148 21.4314 146.484 20.6227 145.99 19.5855C145.496 18.5483 145.258 17.3177 145.258 15.9289C145.258 14.5225 145.496 13.2919 145.99 12.2547C146.484 11.2175 147.148 10.4264 147.999 9.86382C148.851 9.31884 149.804 9.03756 150.877 9.03756C151.865 9.01998 152.733 9.24852 153.449 9.72318ZM150.094 13.5029C149.566 14.083 149.311 14.8917 149.311 15.9113C149.311 16.9309 149.566 17.7396 150.094 18.3197C150.622 18.8999 151.303 19.1812 152.154 19.1812C152.989 19.1812 153.687 18.8823 154.215 18.2846C154.743 17.6869 155.015 16.8958 155.015 15.8937C155.015 14.8741 154.743 14.083 154.215 13.5029C153.687 12.9227 152.989 12.6239 152.154 12.6239C151.303 12.6239 150.622 12.9227 150.094 13.5029Z" fill="#010D1B"/>
<path d="M64.3185 26.7233V40.5411H62.5645V29.5009L58.2903 40.5411H56.7236L52.4323 29.5536V40.5411H50.6783V26.7233H52.7899L57.541 38.326L62.224 26.7233H64.3185Z" fill="#010D1B"/>
<path d="M74.6891 30.1334C75.4895 30.5904 76.1196 31.2409 76.5793 32.0847C77.0391 32.9286 77.2605 33.9306 77.2605 35.0733C77.2605 36.216 77.0391 37.2181 76.5793 38.0619C76.1196 38.9057 75.4895 39.5562 74.6891 40.0133C73.8888 40.4703 72.9692 40.6989 71.9474 40.6989C70.9257 40.6989 70.0232 40.4703 69.2058 40.0133C68.4054 39.5562 67.7583 38.9057 67.2985 38.0619C66.8387 37.2181 66.6003 36.216 66.6003 35.0733C66.6003 33.9306 66.8387 32.9286 67.2985 32.0847C67.7583 31.2409 68.3884 30.5904 69.2058 30.1334C70.0061 29.6763 70.9257 29.4478 71.9474 29.4478C72.9692 29.4478 73.8888 29.6763 74.6891 30.1334ZM70.2105 31.487C69.6826 31.7859 69.2398 32.2254 68.9163 32.8407C68.5927 33.4384 68.4224 34.1943 68.4224 35.0909C68.4224 35.9699 68.5927 36.7083 68.9163 37.3235C69.2398 37.9213 69.6826 38.3783 70.2105 38.6772C70.7384 38.9761 71.3344 39.1167 71.9645 39.1167C72.5946 39.1167 73.1735 38.9761 73.7185 38.6772C74.2464 38.3783 74.6891 37.9388 75.0127 37.3235C75.3362 36.7258 75.5065 35.9699 75.5065 35.0909C75.5065 34.1943 75.3362 33.456 75.0127 32.8407C74.6891 32.243 74.2464 31.7859 73.7185 31.487C73.1906 31.1882 72.5946 31.0475 71.9645 31.0475C71.3344 31.0475 70.7384 31.1882 70.2105 31.487Z" fill="#010D1B"/>
<path d="M87.6313 30.5729C88.5168 31.3112 89.0617 32.3133 89.2661 33.5615H87.4099C87.2737 32.7704 86.9331 32.1551 86.3541 31.7156C85.7751 31.2761 85.0769 31.0475 84.2255 31.0475C83.6124 31.0475 83.0505 31.1882 82.5396 31.487C82.0287 31.7859 81.62 32.2254 81.3135 32.8407C81.007 33.4384 80.8537 34.1943 80.8537 35.0909C80.8537 35.9875 81.007 36.7258 81.3135 37.3411C81.62 37.9388 82.0287 38.3959 82.5396 38.6948C83.0505 38.9936 83.6124 39.1343 84.2255 39.1343C85.0769 39.1343 85.7921 38.9057 86.3541 38.4487C86.9331 37.9916 87.2737 37.3763 87.4099 36.5852H89.2661C89.0617 37.8509 88.5168 38.853 87.6313 39.5914C86.7458 40.3297 85.6219 40.6989 84.2766 40.6989C83.2548 40.6989 82.3523 40.4703 81.5689 40.0133C80.7856 39.5562 80.1726 38.9057 79.7298 38.0619C79.2871 37.2181 79.0657 36.216 79.0657 35.0733C79.0657 33.9306 79.2871 32.9286 79.7298 32.0847C80.1726 31.2409 80.7856 30.5904 81.5689 30.1334C82.3523 29.6763 83.2548 29.4478 84.2766 29.4478C85.6219 29.4478 86.7458 29.8169 87.6313 30.5729Z" fill="#010D1B"/>
<path d="M97.3888 40.5408L93.3358 35.6184V40.5408H91.5818V25.7737H93.3358V34.3527L97.3377 29.5885H99.4833L94.7322 35.0383L99.6025 40.5408H97.3888Z" fill="#010D1B"/>
<path d="M110.569 29.5885V40.5408H108.815V37.9741C108.543 38.8707 108.066 39.5387 107.368 40.0134C106.686 40.488 105.869 40.7166 104.966 40.7166C103.74 40.7166 102.753 40.3122 101.986 39.486C101.22 38.6597 100.845 37.4995 100.845 35.97V29.5885H102.599V35.7942C102.599 36.8842 102.872 37.728 103.417 38.3257C103.962 38.9234 104.694 39.2047 105.614 39.2047C106.584 39.2047 107.35 38.8883 107.929 38.2378C108.508 37.5874 108.798 36.6556 108.798 35.4074V29.5885H110.569Z" fill="#010D1B"/>
<path d="M121.757 30.1334C122.49 30.5904 123.069 31.2409 123.494 32.0847C123.92 32.9286 124.124 33.9306 124.124 35.0733C124.124 36.216 123.92 37.2181 123.494 38.0619C123.069 38.9057 122.507 39.5562 121.757 40.0133C121.025 40.4703 120.191 40.6989 119.237 40.6989C118.198 40.6989 117.33 40.4352 116.615 39.8902C115.899 39.3452 115.406 38.642 115.133 37.763V45.7267H113.379V29.5884H115.133V32.3836C115.406 31.5046 115.899 30.8014 116.615 30.2564C117.33 29.7115 118.198 29.4478 119.237 29.4478C120.191 29.4478 121.025 29.6763 121.757 30.1334ZM116.887 31.5573C116.325 31.8914 115.899 32.3484 115.593 32.9637C115.286 33.579 115.133 34.2822 115.133 35.0733C115.133 35.8644 115.286 36.5676 115.593 37.1829C115.899 37.7806 116.342 38.2553 116.887 38.5893C117.449 38.9233 118.062 39.0815 118.743 39.0815C119.833 39.0815 120.719 38.7299 121.366 38.0092C122.013 37.306 122.336 36.3215 122.336 35.0733C122.336 33.8251 122.013 32.8407 121.366 32.1375C120.719 31.4343 119.85 31.0651 118.743 31.0651C118.062 31.0651 117.449 31.2233 116.887 31.5573Z" fill="#010D1B"/>
<path d="M132.622 30.4148C133.354 31.0653 133.797 31.9267 133.95 33.0166H132.264C132.179 32.3662 131.924 31.8212 131.481 31.4169C131.038 31.0125 130.442 30.784 129.693 30.784C129.063 30.784 128.569 30.9422 128.211 31.2587C127.854 31.5751 127.683 31.997 127.683 32.5244C127.683 32.9287 127.803 33.2452 128.041 33.4913C128.28 33.7374 128.569 33.9308 128.927 34.0539C129.284 34.1769 129.761 34.3176 130.391 34.4582C131.174 34.6516 131.805 34.8274 132.298 35.0207C132.775 35.2141 133.201 35.5306 133.541 35.9525C133.882 36.3744 134.052 36.9545 134.052 37.6753C134.052 38.5719 133.729 39.2927 133.082 39.8552C132.435 40.4178 131.566 40.699 130.476 40.699C129.216 40.699 128.177 40.3826 127.377 39.7673C126.577 39.1344 126.1 38.273 125.964 37.1479H127.666C127.735 37.8159 128.007 38.3433 128.501 38.7653C128.995 39.1696 129.659 39.3806 130.459 39.3806C131.072 39.3806 131.532 39.2223 131.873 38.9059C132.213 38.5895 132.384 38.1675 132.384 37.6577C132.384 37.2358 132.264 36.9018 132.009 36.6381C131.77 36.392 131.464 36.1986 131.106 36.058C130.749 35.9173 130.255 35.7943 129.625 35.636C128.841 35.4427 128.211 35.2669 127.735 35.0735C127.258 34.8801 126.866 34.5988 126.543 34.1945C126.219 33.7902 126.049 33.2452 126.049 32.542C126.049 31.6278 126.372 30.8895 127.036 30.3093C127.701 29.7468 128.586 29.4655 129.727 29.4655C130.936 29.4479 131.907 29.7819 132.622 30.4148Z" fill="#010D1B"/>
</svg>
