<svg width="41" height="43" viewBox="0 0 41 43" fill="none" xmlns="http://www.w3.org/2000/svg">
    <path d="M20.3667 42.5975C31.6149 42.5975 40.7334 33.184 40.7334 21.5719C40.7334 9.95985 31.6149 0.546387 20.3667 0.546387C9.11849 0.546387 0 9.95985 0 21.5719C0 33.184 9.11849 42.5975 20.3667 42.5975Z" fill="#1749FF"/>
    <path d="M28.0127 17.2649C28.0127 13.7489 25.254 10.901 21.8482 10.901H17.8294L12.7036 15.0499H21.8312C22.7337 15.0499 23.5681 15.6827 23.8406 16.5793C24.2663 17.9681 23.2276 19.5151 21.8993 19.5151H17.8294L12.7036 15.0499V23.6288H21.8312C22.7337 23.6288 23.5681 24.2617 23.8406 25.1583C24.2663 26.5471 23.2276 28.0941 21.8993 28.0941H17.8294L12.7036 23.6464V32.2254H21.8482C25.254 32.2254 28.0127 29.3775 28.0127 25.8615C28.0127 24.209 27.3997 22.6971 26.395 21.572C27.3997 20.4293 28.0127 18.935 28.0127 17.2649Z" fill="white"/>
</svg>