<svg width="50" height="60" viewBox="0 0 50 60" fill="none" xmlns="http://www.w3.org/2000/svg">
<path d="M41.5124 40.1263L47.8912 51.0509C48.1845 51.4909 48.1845 52.1507 47.8179 52.5173C47.4513 52.9572 47.0114 53.1772 46.4981 53.1039L41.5124 52.3707L39.2395 57.2831C38.9462 57.7964 38.5063 58.163 37.9197 58.163C37.993 58.163 37.993 58.163 37.9197 58.163C37.4065 58.163 36.8932 57.8697 36.6733 57.4298L30.2944 46.5784" stroke="#1749FF" stroke-width="2.32103" stroke-miterlimit="10" stroke-linejoin="round"/>
<path d="M19.8083 46.5049L13.4295 57.3563C13.2095 57.7962 12.7696 58.0895 12.1831 58.0895C12.1097 58.0895 12.1097 58.0895 12.1831 58.0895C11.5965 58.0895 11.0833 57.7229 10.8633 57.2096L8.59038 52.2972L3.60464 53.0304C3.0914 53.1037 2.57816 52.8838 2.28488 52.4438C1.91828 52.0039 1.91828 51.4174 2.21156 50.9774L8.51706 40.1261" stroke="#1749FF" stroke-width="2.32103" stroke-miterlimit="10" stroke-linejoin="round"/>
<path d="M25.0141 47.7516C37.648 47.7516 47.8899 37.5097 47.8899 24.8758C47.8899 12.2418 37.648 2 25.0141 2C12.3801 2 2.13831 12.2418 2.13831 24.8758C2.13831 37.5097 12.3801 47.7516 25.0141 47.7516Z" stroke="#1749FF" stroke-width="2.32103" stroke-miterlimit="10" stroke-linejoin="round"/>
<path d="M24.867 31.4744C25.3803 31.4744 25.8935 31.621 26.2601 31.9876L32.419 36.4601L30.0727 29.2748C29.7061 28.2483 30.0727 27.1485 30.9526 26.7086L37.1114 22.2361H29.6328C28.6063 22.2361 27.6532 21.6495 27.4332 20.623L25.087 13.4377L22.7408 20.623C22.3742 21.6495 21.4943 22.2361 20.5412 22.2361H12.8426L19.0015 26.7086C19.8813 27.2951 20.2479 28.4682 19.8813 29.2748L17.5351 36.4601L23.6939 31.9876C24.0605 31.6943 24.5004 31.4744 24.867 31.4744Z" stroke="#1749FF" stroke-width="2.32103" stroke-miterlimit="10" stroke-linejoin="round"/>
</svg>
