<svg width="54" height="51" viewBox="0 0 54 51" fill="none" xmlns="http://www.w3.org/2000/svg">
<path d="M1.29519 14.1838L2.48386 14.2295C2.48513 14.1967 2.48503 14.1637 2.48356 14.1309L1.29519 14.1838ZM2.56008 16.7672L3.34929 15.8771H3.34929L2.56008 16.7672ZM2.55936 11.583L3.34856 12.473L3.34856 12.473L2.55936 11.583ZM5.70673 9.83808L6.12127 10.9531L5.70673 9.83808ZM26.6451 2.05331L27.0596 3.1683C27.3838 3.04776 27.6395 2.79207 27.7601 2.46786L26.6451 2.05331ZM26.6649 2L27.0794 0.885015C26.4636 0.656068 25.7789 0.969664 25.5499 1.58545L26.6649 2ZM26.7267 2.02297L26.3121 3.13796C26.5796 3.23738 26.8738 3.23738 27.1412 3.13796L26.7267 2.02297ZM26.7885 2L27.9034 1.58545C27.6745 0.969664 26.9897 0.656068 26.3739 0.885015L26.7885 2ZM26.8083 2.05331L25.6933 2.46786C25.8138 2.79207 26.0695 3.04776 26.3937 3.1683L26.8083 2.05331ZM47.7466 9.83808L48.1612 8.7231V8.7231L47.7466 9.83808ZM50.894 11.583L51.6832 10.6929L51.6832 10.6929L50.894 11.583ZM52.1589 14.1664L50.9702 14.1206C50.9689 14.1535 50.9691 14.1864 50.9705 14.2193L52.1589 14.1664ZM50.8947 16.7672L50.1055 15.8771L50.1055 15.8771L50.8947 16.7672ZM47.7473 18.5121L47.3328 17.3971L47.7473 18.5121ZM26.809 26.2968L26.3945 25.1819C26.0703 25.3024 25.8146 25.5581 25.694 25.8823L26.809 26.2968ZM26.7892 26.3502L26.3746 27.4651C26.6703 27.5751 26.9976 27.5631 27.2845 27.4317C27.5713 27.3003 27.7942 27.0604 27.9042 26.7647L26.7892 26.3502ZM26.7274 26.3272L27.142 25.2122C26.8745 25.1128 26.5803 25.1128 26.3128 25.2122L26.7274 26.3272ZM26.6656 26.3502L25.5506 26.7647C25.6606 27.0604 25.8835 27.3003 26.1703 27.4317C26.4572 27.5631 26.7845 27.5751 27.0802 27.4651L26.6656 26.3502ZM26.6458 26.2968L27.7608 25.8823C27.6402 25.5581 27.3846 25.3024 27.0603 25.1819L26.6458 26.2968ZM5.70745 18.5121L5.29291 19.6271H5.29291L5.70745 18.5121ZM51.5337 14.168L52.7219 14.2254C52.7239 14.1847 52.7237 14.1439 52.7215 14.1032L51.5337 14.168ZM51.4893 14.5225L52.6556 14.7565V14.7565L51.4893 14.5225ZM50.6619 16.1297L49.7667 15.3463C49.5588 15.5839 49.4539 15.8943 49.475 16.2093C49.4961 16.5242 49.6416 16.8179 49.8793 17.0255L50.6619 16.1297ZM50.6626 16.1302L51.498 16.9771C51.7335 16.7448 51.8616 16.4249 51.8516 16.0942C51.8416 15.7636 51.6943 15.452 51.4452 15.2344L50.6626 16.1302ZM50.4807 16.3002L49.6915 15.4101L49.6915 15.4101L50.4807 16.3002ZM47.5299 17.9271L47.1153 16.8121L47.5299 17.9271ZM26.7274 25.6613L26.3129 26.7763C26.5803 26.8757 26.8745 26.8757 27.1419 26.7763L26.7274 25.6613ZM5.92495 17.9271L5.51041 19.0421H5.51041L5.92495 17.9271ZM2.97415 16.3002L2.18494 17.1902L2.18495 17.1903L2.97415 16.3002ZM2.7903 16.1283L1.89477 16.9113C1.91385 16.9331 1.93373 16.9543 1.95436 16.9746L2.7903 16.1283ZM1.96406 14.5225L0.797751 14.7565L0.797752 14.7565L1.96406 14.5225ZM1.92035 14.1821L0.732182 14.1247C0.730215 14.1655 0.730343 14.2063 0.732564 14.247L1.92035 14.1821ZM1.96479 13.8276L0.798478 13.5936L0.798478 13.5936L1.96479 13.8276ZM2.79218 12.2205L3.68741 13.0038C3.89517 12.7664 4.0001 12.4561 3.9791 12.1413C3.9581 11.8265 3.8129 11.533 3.57545 11.3252L2.79218 12.2205ZM2.79151 12.2199L1.95609 11.3731C1.7207 11.6053 1.59259 11.925 1.60249 12.2555C1.61238 12.586 1.75939 12.8975 2.00824 13.1152L2.79151 12.2199ZM2.97342 12.05L2.18422 11.1599L2.18422 11.1599L2.97342 12.05ZM5.92423 10.4231L6.33877 11.5381H6.33877L5.92423 10.4231ZM26.7267 2.68883L27.1412 1.57384C26.8738 1.47442 26.5796 1.47442 26.3121 1.57384L26.7267 2.68883ZM47.5291 10.4231L47.9437 9.30809V9.30809L47.5291 10.4231ZM50.4799 12.05L51.2691 11.1599V11.1599L50.4799 12.05ZM50.6638 12.2218L51.5593 11.4389C51.5402 11.417 51.5204 11.3959 51.4997 11.3755L50.6638 12.2218ZM51.49 13.8276L52.6563 13.5936V13.5936L51.49 13.8276ZM0.106513 14.1381C0.0476432 15.6688 0.854427 16.8446 1.77088 17.6572L3.34929 15.8771C2.7391 15.3361 2.46222 14.7924 2.48386 14.2295L0.106513 14.1381ZM1.77015 10.6929C0.848438 11.5102 0.0380799 12.6947 0.106814 14.2368L2.48356 14.1309C2.45828 13.5636 2.73514 13.0169 3.34856 12.473L1.77015 10.6929ZM5.29218 8.72309C4.15901 9.1444 2.80386 9.77634 1.77015 10.6929L3.34856 12.473C4.05653 11.8453 5.08915 11.3368 6.12127 10.9531L5.29218 8.72309ZM26.2305 0.938327L5.29218 8.72309L6.12127 10.9531L27.0596 3.1683L26.2305 0.938327ZM25.5499 1.58545L25.5301 1.63876L27.7601 2.46786L27.7799 2.41455L25.5499 1.58545ZM27.1412 0.907986L27.0794 0.885015L26.2503 3.11499L26.3121 3.13796L27.1412 0.907986ZM26.3739 0.885015L26.3121 0.907986L27.1412 3.13796L27.203 3.11498L26.3739 0.885015ZM27.9233 1.63876L27.9034 1.58545L25.6735 2.41455L25.6933 2.46786L27.9233 1.63876ZM48.1612 8.7231L27.2228 0.938327L26.3937 3.1683L47.3321 10.9531L48.1612 8.7231ZM51.6832 10.6929C50.6495 9.77634 49.2943 9.1444 48.1612 8.7231L47.3321 10.9531C48.3642 11.3368 49.3968 11.8453 50.1048 12.473L51.6832 10.6929ZM53.3476 14.2121C53.4064 12.6814 52.5997 11.5055 51.6832 10.6929L50.1048 12.473C50.715 13.0141 50.9919 13.5578 50.9702 14.1206L53.3476 14.2121ZM51.6839 17.6572C52.6056 16.84 53.416 15.6554 53.3473 14.1134L50.9705 14.2193C50.9958 14.7866 50.7189 15.3332 50.1055 15.8771L51.6839 17.6572ZM48.1619 19.6271C49.2951 19.2058 50.6502 18.5738 51.6839 17.6572L50.1055 15.8771C49.3975 16.5049 48.3649 17.0133 47.3328 17.3971L48.1619 19.6271ZM27.2236 27.4118L48.1619 19.6271L47.3328 17.3971L26.3945 25.1819L27.2236 27.4118ZM27.9042 26.7647L27.924 26.7114L25.694 25.8823L25.6742 25.9356L27.9042 26.7647ZM26.3128 27.4422L26.3746 27.4651L27.2037 25.2352L27.142 25.2122L26.3128 27.4422ZM27.0802 27.4651L27.142 27.4422L26.3128 25.2122L26.2511 25.2352L27.0802 27.4651ZM25.5308 26.7114L25.5506 26.7647L27.7806 25.9356L27.7608 25.8823L25.5308 26.7114ZM5.29291 19.6271L26.2313 27.4118L27.0603 25.1819L6.122 17.3971L5.29291 19.6271ZM1.77088 17.6572C2.80458 18.5738 4.15974 19.2057 5.29291 19.6271L6.122 17.3971C5.08987 17.0133 4.05726 16.5049 3.34929 15.8771L1.77088 17.6572ZM50.3456 14.1106C50.3429 14.1651 50.3359 14.2242 50.323 14.2885L52.6556 14.7565C52.6911 14.5796 52.7133 14.4024 52.7219 14.2254L50.3456 14.1106ZM50.323 14.2885C50.2615 14.5947 50.11 14.9539 49.7667 15.3463L51.5571 16.913C52.1633 16.2202 52.5093 15.4857 52.6556 14.7565L50.323 14.2885ZM49.8793 17.0255L49.88 17.0261L51.4452 15.2344L51.4445 15.2338L49.8793 17.0255ZM49.8272 15.2834C49.7847 15.3253 49.7395 15.3675 49.6915 15.4101L51.2698 17.1903C51.3478 17.1212 51.4239 17.0501 51.498 16.9771L49.8272 15.2834ZM49.6915 15.4101C49.069 15.962 48.1211 16.4381 47.1153 16.8121L47.9444 19.0421C49.0509 18.6307 50.3215 18.0311 51.2699 17.1903L49.6915 15.4101ZM47.1153 16.8121L26.3129 24.5463L27.1419 26.7763L47.9444 19.0421L47.1153 16.8121ZM27.1419 24.5463L6.3395 16.8121L5.51041 19.0421L26.3129 26.7763L27.1419 24.5463ZM6.3395 16.8121C5.33368 16.4381 4.38578 15.962 3.76335 15.4101L2.18495 17.1903C3.13326 18.0311 4.40386 18.6307 5.51041 19.0421L6.3395 16.8121ZM3.76336 15.4101C3.71473 15.367 3.66906 15.3243 3.62625 15.282L1.95436 16.9746C2.02918 17.0486 2.10617 17.1204 2.18494 17.1902L3.76336 15.4101ZM3.68584 15.3454C3.3431 14.9534 3.19177 14.5945 3.13037 14.2885L0.797752 14.7565C0.943933 15.4851 1.28949 16.219 1.89477 16.9113L3.68584 15.3454ZM3.13037 14.2885C3.11799 14.2268 3.11101 14.1699 3.10814 14.1173L0.732564 14.247C0.741833 14.4168 0.76369 14.5868 0.797751 14.7565L3.13037 14.2885ZM3.10852 14.2395C3.11115 14.185 3.1182 14.1259 3.1311 14.0616L0.798478 13.5936C0.76297 13.7706 0.740731 13.9478 0.732182 14.1247L3.10852 14.2395ZM3.1311 14.0616C3.19254 13.7554 3.34406 13.3962 3.68741 13.0038L1.89695 11.4372C1.29079 12.1299 0.944781 12.8645 0.798478 13.5936L3.1311 14.0616ZM3.57545 11.3252L3.57478 11.3246L2.00824 13.1152L2.00891 13.1158L3.57545 11.3252ZM3.62693 13.0667C3.66933 13.0249 3.71454 12.9826 3.76263 12.94L2.18422 11.1599C2.1063 11.229 2.03014 11.3 1.95609 11.3731L3.62693 13.0667ZM3.76263 12.94C4.38505 12.3881 5.33295 11.912 6.33877 11.5381L5.50968 9.30809C4.40314 9.71949 3.13253 10.319 2.18422 11.1599L3.76263 12.94ZM6.33877 11.5381L27.1412 3.80381L26.3121 1.57384L5.50968 9.30809L6.33877 11.5381ZM26.3121 3.80381L47.1146 11.5381L47.9437 9.30809L27.1412 1.57384L26.3121 3.80381ZM47.1146 11.5381C48.1204 11.912 49.0683 12.3881 49.6907 12.94L51.2691 11.1599C50.3208 10.319 49.0502 9.7195 47.9437 9.30809L47.1146 11.5381ZM49.6907 12.94C49.7393 12.9831 49.785 13.0258 49.8279 13.0681L51.4997 11.3755C51.4249 11.3016 51.3479 11.2298 51.2691 11.1599L49.6907 12.94ZM49.7683 13.0048C50.111 13.3968 50.2623 13.7556 50.3237 14.0617L52.6563 13.5936C52.5101 12.8651 52.1646 12.1311 51.5593 11.4389L49.7683 13.0048ZM50.3237 14.0616C50.3361 14.1233 50.3431 14.1802 50.3459 14.2328L52.7215 14.1032C52.7122 13.9334 52.6904 13.7634 52.6563 13.5936L50.3237 14.0616Z" fill="#1749FF"/>
<path d="M2.3218 23.2491L3.10513 22.3539C2.8677 22.1461 2.55747 22.0412 2.24268 22.0622C1.92789 22.0832 1.63432 22.2284 1.42657 22.4658L2.3218 23.2491ZM1.35218 25.1445L0.185875 24.9104V24.9104L1.35218 25.1445ZM2.7915 23.6601L3.68673 24.4434C4.11935 23.949 4.06925 23.1975 3.57483 22.7649L2.7915 23.6601ZM1.96411 25.2672L0.797798 25.0332L0.797797 25.0332L1.96411 25.2672ZM2.97347 27.7398L2.18426 28.6299L2.18427 28.6299L2.97347 27.7398ZM5.92427 29.3667L6.33882 28.2517L5.92427 29.3667ZM26.727 37.101L26.3125 38.216C26.5799 38.3155 26.8742 38.3155 27.1416 38.216L26.727 37.101ZM47.5298 29.3667L47.9443 30.4817L47.5298 29.3667ZM50.4806 27.7398L49.6914 26.8497V26.8498L50.4806 27.7398ZM51.4899 25.2672L52.6563 25.0332L52.6563 25.0332L51.4899 25.2672ZM50.6626 23.6601L49.8792 22.7649C49.3848 23.1975 49.3347 23.949 49.7673 24.4434L50.6626 23.6601ZM51.1322 23.2491L52.0275 22.4658C51.5949 21.9714 50.8433 21.9213 50.3489 22.3539L51.1322 23.2491ZM52.1019 25.1445L50.9356 25.3785L50.9356 25.3785L52.1019 25.1445ZM50.8947 28.2068L51.6839 29.0968V29.0968L50.8947 28.2068ZM47.7473 29.9517L48.1618 31.0667H48.1618L47.7473 29.9517ZM26.8082 37.7367L26.3937 36.6217C26.0695 36.7423 25.8138 36.9979 25.6933 37.3221L26.8082 37.7367ZM26.7885 37.7898L26.374 38.9047C26.9897 39.1337 27.6745 38.8201 27.9035 38.2043L26.7885 37.7898ZM26.727 37.7669L27.1416 36.6519C26.8741 36.5525 26.5799 36.5525 26.3125 36.6519L26.727 37.7669ZM26.6655 37.7898L25.5506 38.2043C25.7795 38.8201 26.4643 39.1337 27.0801 38.9047L26.6655 37.7898ZM26.6458 37.7367L27.7608 37.3221C27.6403 36.9979 27.3846 36.7423 27.0604 36.6217L26.6458 37.7367ZM5.70677 29.9517L5.29223 31.0667H5.29223L5.70677 29.9517ZM2.5594 28.2068L3.34861 27.3167L3.34861 27.3167L2.5594 28.2068ZM1.42657 22.4658C0.7515 23.2373 0.354446 24.0703 0.185875 24.9104L2.51849 25.3785C2.60219 24.9613 2.80473 24.5037 3.21704 24.0324L1.42657 22.4658ZM3.57483 22.7649L3.10513 22.3539L1.53848 24.1443L2.00817 24.5553L3.57483 22.7649ZM3.13041 25.5013C3.19186 25.195 3.34338 24.8358 3.68673 24.4434L1.89627 22.8768C1.29011 23.5695 0.9441 24.3041 0.797798 25.0332L3.13041 25.5013ZM3.76267 26.8498C3.17019 26.3244 3.04812 25.9114 3.13042 25.5013L0.797797 25.0332C0.490406 26.5652 1.21781 27.7729 2.18426 28.6299L3.76267 26.8498ZM6.33882 28.2517C5.333 27.8777 4.3851 27.4016 3.76267 26.8497L2.18427 28.6299C3.13257 29.4707 4.40318 30.0703 5.50973 30.4817L6.33882 28.2517ZM27.1416 35.9861L6.33882 28.2517L5.50973 30.4817L26.3125 38.216L27.1416 35.9861ZM27.1416 38.216L47.9443 30.4817L47.1152 28.2517L26.3125 35.9861L27.1416 38.216ZM47.9443 30.4817C49.0509 30.0703 50.3215 29.4707 51.2698 28.6299L49.6914 26.8498C49.069 27.4016 48.1211 27.8777 47.1152 28.2517L47.9443 30.4817ZM51.2698 28.6299C52.2362 27.7729 52.9636 26.5652 52.6563 25.0332L50.3236 25.5013C50.4059 25.9114 50.2839 26.3244 49.6914 26.8497L51.2698 28.6299ZM52.6563 25.0332C52.51 24.3041 52.1639 23.5695 51.5578 22.8768L49.7673 24.4434C50.1107 24.8358 50.2622 25.195 50.3236 25.5013L52.6563 25.0332ZM51.4459 24.5553L51.9156 24.1443L50.3489 22.3539L49.8792 22.7649L51.4459 24.5553ZM50.237 24.0324C50.6493 24.5037 50.8519 24.9613 50.9356 25.3785L53.2682 24.9104C53.0996 24.0703 52.7026 23.2373 52.0275 22.4658L50.237 24.0324ZM50.9356 25.3785C51.0765 26.081 50.7981 26.7026 50.1054 27.3167L51.6839 29.0968C52.7447 28.1562 53.6353 26.7404 53.2682 24.9104L50.9356 25.3785ZM50.1054 27.3167C49.3975 27.9445 48.3649 28.453 47.3327 28.8367L48.1618 31.0667C49.295 30.6454 50.6502 30.0134 51.6839 29.0968L50.1054 27.3167ZM47.3327 28.8367L26.3937 36.6217L27.2228 38.8517L48.1618 31.0667L47.3327 28.8367ZM27.9035 38.2043L27.9232 38.1513L25.6933 37.3221L25.6735 37.3752L27.9035 38.2043ZM26.3125 38.8819L26.374 38.9047L27.2031 36.6748L27.1416 36.6519L26.3125 38.8819ZM26.3125 36.6519L26.251 36.6748L27.0801 38.9047L27.1416 38.8819L26.3125 36.6519ZM27.7805 37.3752L27.7608 37.3221L25.5308 38.1513L25.5506 38.2043L27.7805 37.3752ZM5.29223 31.0667L26.2313 38.8517L27.0604 36.6217L6.12132 28.8367L5.29223 31.0667ZM1.7702 29.0968C2.8039 30.0134 4.15906 30.6454 5.29223 31.0667L6.12132 28.8367C5.08919 28.453 4.05658 27.9445 3.34861 27.3167L1.7702 29.0968ZM0.185875 24.9104C-0.181286 26.7404 0.709385 28.1562 1.7702 29.0968L3.34861 27.3167C2.65595 26.7026 2.37755 26.081 2.51849 25.3785L0.185875 24.9104Z" fill="#1749FF"/>
<path d="M2.3218 34.6888L3.10513 33.7936C2.8677 33.5859 2.55747 33.4809 2.24268 33.5019C1.92789 33.5229 1.63432 33.6681 1.42657 33.9055L2.3218 34.6888ZM1.35218 36.5842L0.185875 36.3502V36.3502L1.35218 36.5842ZM2.7915 35.0998L3.68673 35.8832C4.11935 35.3887 4.06925 34.6372 3.57483 34.2046L2.7915 35.0998ZM1.96411 36.707L0.797797 36.4729L0.797797 36.473L1.96411 36.707ZM2.97347 39.1795L2.18426 40.0696L2.18427 40.0696L2.97347 39.1795ZM5.92427 40.8064L6.33882 39.6914L5.92427 40.8064ZM26.727 48.5408L26.3125 49.6558C26.5799 49.7552 26.8742 49.7552 27.1416 49.6558L26.727 48.5408ZM47.5298 40.8064L47.9443 41.9214V41.9214L47.5298 40.8064ZM50.4806 39.1795L49.6914 38.2895V38.2895L50.4806 39.1795ZM51.4899 36.707L52.6563 36.473L52.6563 36.4729L51.4899 36.707ZM50.6626 35.0998L49.8792 34.2046C49.3848 34.6372 49.3347 35.3887 49.7673 35.8832L50.6626 35.0998ZM51.1322 34.6888L52.0275 33.9055C51.5949 33.4111 50.8433 33.361 50.3489 33.7936L51.1322 34.6888ZM52.1019 36.5842L50.9356 36.8182L50.9356 36.8182L52.1019 36.5842ZM50.8947 39.6465L51.6839 40.5366V40.5366L50.8947 39.6465ZM47.7473 41.3914L48.1618 42.5064L48.1618 42.5064L47.7473 41.3914ZM26.8082 49.1764L26.3937 48.0615C26.0695 48.182 25.8138 48.4377 25.6933 48.7619L26.8082 49.1764ZM26.7885 49.2295L26.374 50.3445C26.9897 50.5734 27.6745 50.2598 27.9035 49.644L26.7885 49.2295ZM26.727 49.2066L27.1416 48.0916C26.8741 47.9922 26.5799 47.9922 26.3125 48.0916L26.727 49.2066ZM26.6655 49.2295L25.5506 49.644C25.7795 50.2598 26.4643 50.5734 27.0801 50.3445L26.6655 49.2295ZM26.6458 49.1764L27.7608 48.7619C27.6403 48.4377 27.3846 48.182 27.0604 48.0615L26.6458 49.1764ZM5.70677 41.3914L5.29223 42.5064H5.29223L5.70677 41.3914ZM2.5594 39.6465L3.34861 38.7565L3.34861 38.7565L2.5594 39.6465ZM1.42657 33.9055C0.7515 34.677 0.354446 35.51 0.185875 36.3502L2.51849 36.8182C2.60219 36.401 2.80473 35.9434 3.21704 35.4722L1.42657 33.9055ZM3.57483 34.2046L3.10513 33.7936L1.53848 35.5841L2.00817 35.9951L3.57483 34.2046ZM3.13041 36.941C3.19186 36.6347 3.34338 36.2756 3.68673 35.8832L1.89627 34.3165C1.29011 35.0093 0.9441 35.7438 0.797797 36.4729L3.13041 36.941ZM3.76267 38.2895C3.17019 37.7641 3.04812 37.3511 3.13042 36.941L0.797797 36.473C0.490406 38.005 1.21781 39.2126 2.18426 40.0696L3.76267 38.2895ZM6.33882 39.6914C5.333 39.3175 4.3851 38.8414 3.76267 38.2895L2.18427 40.0696C3.13257 40.9104 4.40318 41.51 5.50973 41.9214L6.33882 39.6914ZM27.1416 47.4258L6.33882 39.6914L5.50973 41.9214L26.3125 49.6558L27.1416 47.4258ZM27.1416 49.6558L47.9443 41.9214L47.1152 39.6914L26.3125 47.4258L27.1416 49.6558ZM47.9443 41.9214C49.0509 41.51 50.3215 40.9104 51.2698 40.0696L49.6914 38.2895C49.069 38.8414 48.1211 39.3175 47.1152 39.6914L47.9443 41.9214ZM51.2698 40.0696C52.2362 39.2126 52.9636 38.005 52.6563 36.473L50.3236 36.941C50.4059 37.3511 50.2839 37.7641 49.6914 38.2895L51.2698 40.0696ZM52.6563 36.4729C52.51 35.7438 52.1639 35.0093 51.5578 34.3165L49.7673 35.8832C50.1107 36.2756 50.2622 36.6347 50.3236 36.941L52.6563 36.4729ZM51.4459 35.9951L51.9156 35.5841L50.3489 33.7936L49.8792 34.2046L51.4459 35.9951ZM50.237 35.4722C50.6493 35.9434 50.8519 36.401 50.9356 36.8182L53.2682 36.3502C53.0996 35.51 52.7026 34.677 52.0275 33.9055L50.237 35.4722ZM50.9356 36.8182C51.0765 37.5207 50.7981 38.1423 50.1054 38.7565L51.6839 40.5366C52.7447 39.596 53.6353 38.1801 53.2682 36.3502L50.9356 36.8182ZM50.1054 38.7565C49.3975 39.3842 48.3649 39.8927 47.3327 40.2764L48.1618 42.5064C49.295 42.0851 50.6502 41.4531 51.6839 40.5366L50.1054 38.7565ZM47.3327 40.2764L26.3937 48.0615L27.2228 50.2914L48.1618 42.5064L47.3327 40.2764ZM27.9035 49.644L27.9232 49.591L25.6933 48.7619L25.6735 48.8149L27.9035 49.644ZM26.3125 50.3216L26.374 50.3445L27.2031 48.1145L27.1416 48.0916L26.3125 50.3216ZM26.3125 48.0916L26.251 48.1145L27.0801 50.3445L27.1416 50.3216L26.3125 48.0916ZM27.7805 48.8149L27.7608 48.7619L25.5308 49.591L25.5506 49.644L27.7805 48.8149ZM5.29223 42.5064L26.2313 50.2914L27.0604 48.0615L6.12132 40.2764L5.29223 42.5064ZM1.7702 40.5366C2.8039 41.4531 4.15906 42.0851 5.29223 42.5064L6.12132 40.2764C5.08919 39.8927 4.05658 39.3842 3.34861 38.7565L1.7702 40.5366ZM0.185875 36.3502C-0.181286 38.1801 0.709385 39.596 1.7702 40.5366L3.34861 38.7565C2.65595 38.1423 2.37755 37.5207 2.51849 36.8182L0.185875 36.3502Z" fill="#1749FF"/>
</svg>
